<?xml version="1.0" standalone="no"?>
<!DOCTYPE svg PUBLIC "-//W3C//DTD SVG 20010904//EN"
 "http://www.w3.org/TR/2001/REC-SVG-20010904/DTD/svg10.dtd">
<svg version="1.0" xmlns="http://www.w3.org/2000/svg"
 width="32.000000pt" height="32.000000pt" viewBox="0 0 32.000000 32.000000"
 preserveAspectRatio="xMidYMid meet">
<metadata>
Created for Safari pinned tab
</metadata>
<g transform="translate(0.000000,32.000000) scale(0.100000,-0.100000)"
fill="#000000" stroke="none">
<path d="M50 160 c0 -88 2 -160 5 -160 3 0 5 72 5 160 0 88 -2 160 -5 160 -3 0
-5 -72 -5 -160z"/>
<path d="M120 160 c0 -88 2 -160 5 -160 3 0 5 72 5 160 0 88 -2 160 -5 160 -3
0 -5 -72 -5 -160z"/>
<path d="M190 160 c0 -88 2 -160 5 -160 3 0 5 72 5 160 0 88 -2 160 -5 160 -3
0 -5 -72 -5 -160z"/>
</g>
</svg>
